<svg id="Capa_1" enable-background="new 0 0 512 512" height="512" viewBox="0 0 512 512" width="512" xmlns="http://www.w3.org/2000/svg"><g id="XMLID_109_"><path id="XMLID_1038_" d="m61 175h390v162h-390z" fill="#2b4c9f"/><path id="XMLID_2_" d="m256 175h195v162h-195z" fill="#213b82"/><path id="XMLID_439_" d="m0 25h512v180h-512z" fill="#e4f3ff"/><path id="XMLID_111_" d="m256 25h256v180h-256z" fill="#c3dafd"/><g id="XMLID_438_"><path id="XMLID_1055_" d="m61 100h30v30h-30z" fill="#dc4c69"/></g><g id="XMLID_437_"><g><path id="XMLID_391_" d="m121 100h30v30h-30z" fill="#9fe04d"/></g></g><g id="XMLID_436_"><path id="XMLID_1043_" d="m181 100h30v30h-30z" fill="#f4d844"/></g><g id="XMLID_435_"><path id="XMLID_1041_" d="m271 100h180v30h-180z" fill="#213b82"/></g><path id="XMLID_466_" d="m0 307h512v180h-512z" fill="#e4f3ff"/><path id="XMLID_465_" d="m256 307h256v180h-256z" fill="#c3dafd"/><g id="XMLID_462_"><g><path id="XMLID_163_" d="m61 382h30v30h-30z" fill="#dc4c69"/></g></g><g id="XMLID_459_"><g><path id="XMLID_381_" d="m121 382h30v30h-30z" fill="#9fe04d"/></g></g><g id="XMLID_451_"><path id="XMLID_458_" d="m181 382h30v30h-30z" fill="#f4d844"/></g><g id="XMLID_449_"><path id="XMLID_450_" d="m271 382h180v30h-180z" fill="#213b82"/></g></g></svg>